<svg xmlns="http://www.w3.org/2000/svg" width="173.671" height="75.244" viewBox="0 0 173.671 75.244"><defs><style>.a{fill:#c1d72f;}.b{fill:#48166d;}</style></defs><path class="a" d="M284.773,268.512a3.7,3.7,0,1,1-7.4,0,3.663,3.663,0,0,1,3.737-3.779,3.57,3.57,0,0,1,3.665,3.779" transform="translate(-135.691 -252.478)"/><path class="a" d="M180.255,256.282A112.069,112.069,0,0,0,50.338,278.893V257.354H44.292V294.96c.492-.673,1-1.347,1.506-2.011.114-.15.213-.285.332-.432.4-.533.822-1.057,1.247-1.584.231-.3.458-.6.7-.889.4-.494.808-.973,1.225-1.467.255-.311.525-.629.791-.946.407-.467.826-.934,1.236-1.4.278-.317.558-.634.844-.948.413-.459.839-.908,1.26-1.357.293-.312.592-.629.881-.934.43-.443.862-.886,1.286-1.323.309-.3.605-.608.911-.907.446-.437.886-.869,1.336-1.3.308-.287.613-.574.917-.868.462-.425.927-.85,1.384-1.266a112.262,112.262,0,0,1,119.666-20.057.527.527,0,0,0,.681-.252.568.568,0,0,0-.238-.733" transform="translate(-44.292 -244.797)"/><path class="b" d="M112.614,317.652H107.29l-.391-6.168h-.154a14.038,14.038,0,0,1-12.355,7.027c-5.866,0-12.889-3.278-12.889-16.545V279.875h6.157v20.917c0,7.179,2.8,12.018,8.976,12.018a9.827,9.827,0,0,0,8.954-6.246,10.105,10.105,0,0,0,.61-3.509V279.875h6.1s.079,34.818.31,37.777m6.694-7.025a17.677,17.677,0,0,0,8.95,2.734c4.945,0,7.256-2.5,7.256-5.629,0-3.275-1.926-5.066-6.945-6.94-6.706-2.417-9.88-6.159-9.88-10.692,0-6.09,4.861-11.084,12.89-11.084a18.483,18.483,0,0,1,9.186,2.344l-1.7,4.991a14.4,14.4,0,0,0-7.641-2.189c-4.009,0-6.245,2.345-6.245,5.156,0,3.123,2.236,4.527,7.1,6.4,6.49,2.494,9.8,5.779,9.8,11.4,0,6.635-5.1,11.395-13.969,11.395a21.084,21.084,0,0,1-10.5-2.659ZM146.931,292.2c0-4.836-.159-8.737-.312-12.327h6.094l.314,6.477h.154a14.645,14.645,0,0,1,13.279-7.335c9.02,0,15.821,7.727,15.821,19.2,0,13.584-8.187,20.3-16.983,20.3-4.949,0-9.261-2.185-11.507-5.934h-.149v17.492h-6.711Zm6.711,10.075a14.627,14.627,0,0,0,.315,2.805,10.5,10.5,0,0,0,10.182,8.044c7.18,0,11.341-5.934,11.341-14.6,0-7.569-3.933-14.051-11.107-14.051a10.873,10.873,0,0,0-10.269,8.509,11.18,11.18,0,0,0-.461,2.808Zm33.248-22.4h6.224v37.777H186.89Zm22.49-9.053v9.053h8.562V285.1H209.38v20.371c0,4.679,1.314,7.335,5.094,7.335a10.411,10.411,0,0,0,3.489-.31v5.034a12.213,12.213,0,0,1-5.264.976,9.387,9.387,0,0,1-7.331-2.973c-1.937-2.029-2.636-5.384-2.636-9.83V285.1h-3.45v-5.229h3.45V272.93ZM62.342,289.711a35.744,35.744,0,0,0-4.646,4.752L73.08,317.652h7.95Zm-18.05,21.2v6.736h6.046V302.72a59.162,59.162,0,0,0-6.046,8.2" transform="translate(-44.292 -254.824)"/></svg>